<svg xmlns="http://www.w3.org/2000/svg" xmlns:xlink="http://www.w3.org/1999/xlink" viewBox="0 0 29.68 19.58"><defs><style>.cls-1{isolation:isolate;}.cls-2{fill:#ed1c24;}.cls-3{fill:#f1e10a;}.cls-3,.cls-4{opacity:0.6;}.cls-4{fill:#f3e235;}.cls-5{fill:#eac076;}.cls-14,.cls-21,.cls-23,.cls-5,.cls-6{mix-blend-mode:screen;}.cls-6{fill:#e7f6fd;}.cls-7{fill:#626467;}.cls-8{fill:url(#linear-gradient);}.cls-9{fill:#3a3c3f;}.cls-10{fill:#b3b5b8;opacity:0.9;}.cls-10,.cls-13,.cls-26{mix-blend-mode:multiply;}.cls-11{fill:url(#linear-gradient-2);}.cls-12,.cls-13{fill:#008ed0;}.cls-14,.cls-17{fill:#fff;}.cls-15{fill:#083879;}.cls-16{fill:#c2c4c6;}.cls-18{fill:url(#linear-gradient-3);}.cls-19{fill:#ff0026;}.cls-20{fill:#ecb020;}.cls-21{fill:#c9e9eb;opacity:0.7;}.cls-22{fill:url(#radial-gradient);}.cls-24{fill:url(#radial-gradient-2);}.cls-25{fill:url(#radial-gradient-3);}.cls-26{fill:#dedfe0;}.cls-27{fill:#fff2bb;opacity:0.5;}</style><linearGradient id="linear-gradient" x1="564.76" y1="-1106.44" x2="565.18" y2="-1102.9" gradientTransform="matrix(0.55, -0.84, 0.84, 0.55, 731.89, 1129.07)" gradientUnits="userSpaceOnUse"><stop offset="0.46" stop-color="#e5e0df"/><stop offset="1" stop-color="#8ca99c"/></linearGradient><linearGradient id="linear-gradient-2" x1="562.67" y1="-1106.44" x2="563.09" y2="-1102.91" xlink:href="#linear-gradient"/><linearGradient id="linear-gradient-3" x1="559.32" y1="-1116.33" x2="568.27" y2="-1116.33" xlink:href="#linear-gradient"/><radialGradient id="radial-gradient" cx="563.36" cy="-1111.91" r="1.55" gradientTransform="matrix(0.55, -0.84, 0.84, 0.55, 731.89, 1129.07)" gradientUnits="userSpaceOnUse"><stop offset="0.15" stop-color="#21687e"/><stop offset="0.49" stop-color="#023f5f"/><stop offset="0.98"/></radialGradient><radialGradient id="radial-gradient-2" cx="562.91" cy="-1111.91" r="1.47" gradientTransform="matrix(0.55, -0.84, 0.84, 0.55, 731.89, 1129.07)" gradientUnits="userSpaceOnUse"><stop offset="0.29" stop-color="#fff"/><stop offset="0.69" stop-color="#6c6c6c"/><stop offset="1"/></radialGradient><radialGradient id="radial-gradient-3" cx="562.91" cy="-1111.91" r="1.47" xlink:href="#radial-gradient-2"/></defs><title>37414 [Converted]</title><g class="cls-1"><g id="Layer_1" data-name="Layer 1"><path class="cls-2" d="M131.11,63.23c-.09-.08-.2-.15-.3-.23s-.37-.3-.55-.45-1.89-1.48-2.38-1.84-1.22-1-1.83-1.45l-1.42-1.17a14.5,14.5,0,0,1,1.44.91l-.16-.15c-1.22-1-2.59-1.89-3.83-2.88l1,.56c-.24-.2-.48-.4-.73-.57s-.72-.58-.7-.56c.47.32,1,.65,1.43,1-.37-.32-.75-.63-1.14-1-.72-.58-1.4-1.19-2.12-1.77a9.74,9.74,0,0,0-1.9-1.28,2.31,2.31,0,0,0-1.9-.16c-1.4.59-1.71,2.57-.29,3.92a12.75,12.75,0,0,0,2.16,1.53c.49.25,1.72.78,2.23,1l.59.27c.66.25,1.32.53,2,.72l-1.93-1a8,8,0,0,1,.87.36c.32.15.65.28,1,.42s.62.25.92.39.55.25.83.36c-.66-.43-2.45-1.5-2.43-1.49l.44.23,1.53.8c.64.32,1.3.62,2,.93,1,.48,1.93,1,2.91,1.43L126,60.4c1.15.61,2.32,1.17,3.44,1.84C130,62.57,130.55,62.91,131.11,63.23Z" transform="translate(-103.31 -45.12)"/><path class="cls-3" d="M115.26,53.38a1.64,1.64,0,0,1,.47-.64,1.78,1.78,0,0,1,.78-.29,2.83,2.83,0,0,1,1.17.14,6.07,6.07,0,0,1,.59.24c.15.07.3.17.45.24h0c-.16-.09-.32-.21-.49-.31a4.17,4.17,0,0,0-.58-.24,2.92,2.92,0,0,0-1.18-.17,1.34,1.34,0,0,0-1.22,1S115.25,53.39,115.26,53.38Z" transform="translate(-103.31 -45.12)"/><path class="cls-3" d="M115.29,55.3c.09.14.19.26.29.39A6.25,6.25,0,0,0,117,57s0,0,0,0a6.66,6.66,0,0,1-1.37-1.33,5.48,5.48,0,0,1-.48-.74l-.18-.4A2.62,2.62,0,0,0,115.29,55.3Z" transform="translate(-103.31 -45.12)"/><path class="cls-3" d="M120.5,53.63l-.55-.52c-.19-.16-.4-.32-.6-.47a7.26,7.26,0,0,0-1.3-.74,3.47,3.47,0,0,0-1.36-.33,2.55,2.55,0,0,0-1.14.25s0,0,0,0a3.5,3.5,0,0,1,2.51.21,8,8,0,0,1,1.25.68c.41.28.78.6,1.16.91C120.51,53.66,120.52,53.65,120.5,53.63Z" transform="translate(-103.31 -45.12)"/><path class="cls-3" d="M114.49,54a2.38,2.38,0,0,1,.13-.6,2.72,2.72,0,0,1,.19-.47,1.63,1.63,0,0,1,.11-.17,1.18,1.18,0,0,1,.25-.3,1.13,1.13,0,0,1,.21-.15,1.74,1.74,0,0,0-.74.52,1.94,1.94,0,0,0-.3,1,2.54,2.54,0,0,0,.23,1.15l.12.28A2.66,2.66,0,0,1,114.49,54Z" transform="translate(-103.31 -45.12)"/><path class="cls-3" d="M117.7,57.9l-.33-.2c-.13-.07-.25-.15-.37-.23s-.47-.33-.7-.5a10.66,10.66,0,0,1-1.24-1.08s0,0,0,0a4.16,4.16,0,0,0,.5.61,7.34,7.34,0,0,0,.69.56,7.89,7.89,0,0,0,.77.51l.39.19c.11.05.22.12.33.16S117.71,57.91,117.7,57.9Z" transform="translate(-103.31 -45.12)"/><path class="cls-3" d="M122.13,55.44c-.22-.17-.41-.39-.61-.57s-.47-.45-.71-.67A12.15,12.15,0,0,0,119.3,53s0,0,0,0c.23.22.48.41.73.62s.49.43.73.65.49.43.73.65a8.42,8.42,0,0,0,.64.55S122.14,55.45,122.13,55.44Z" transform="translate(-103.31 -45.12)"/><path class="cls-3" d="M120.75,59.07c-1-.44-1.94-.94-2.93-1.35,0,0,0,0,0,.05a8.56,8.56,0,0,0,1.42.71,14.74,14.74,0,0,0,1.5.61S120.76,59.08,120.75,59.07Z" transform="translate(-103.31 -45.12)"/><path class="cls-3" d="M126.1,61.15l-1.26-.57c-.42-.18-.84-.32-1.26-.48l-.75-.26q.57.27,1.14.51c.29.1.58.2.86.32l1.28.5S126.11,61.15,126.1,61.15Z" transform="translate(-103.31 -45.12)"/><path class="cls-3" d="M130.83,63.56c-.79-.45-1.59-.9-2.4-1.29l-1.19-.57a7.85,7.85,0,0,0-1.16-.44s0,0,0,0c1.59.69,3.17,1.48,4.73,2.28C130.84,63.58,130.84,63.57,130.83,63.56Z" transform="translate(-103.31 -45.12)"/><path class="cls-3" d="M128.93,61.3l.74.55.46.33.88.58-.19-.17c-.32-.27-.65-.52-1-.77s-.64-.49-1-.72l-.73-.49C128.39,60.85,128.65,61.08,128.93,61.3Z" transform="translate(-103.31 -45.12)"/><path class="cls-3" d="M128.53,60.65a5.37,5.37,0,0,1-.51-.44l-.58-.5-1.22-1-1.23-1c-.41-.33-.85-.61-1.29-.91,0,0,0,0,0,0,.42.33.8.67,1.22,1l1.25,1,1.23,1,.6.46c.18.14.34.29.53.42C128.54,60.68,128.54,60.66,128.53,60.65Z" transform="translate(-103.31 -45.12)"/><path class="cls-3" d="M125.72,58.17a3.22,3.22,0,0,1-.28-.24l-.26-.24c-.18-.19-.38-.37-.57-.54-.41-.38-.83-.75-1.24-1.11-.81-.72-1.62-1.45-2.47-2.12,0,0,0,0,0,0,.81.74,1.64,1.46,2.46,2.19l1.25,1.11.62.55a2.81,2.81,0,0,0,.51.4S125.73,58.18,125.72,58.17Z" transform="translate(-103.31 -45.12)"/><path class="cls-3" d="M133,64.7c-.2-.11-.41-.17-.61-.26l-.7-.31-1.44-.66-1.4-.68c-.47-.24-.92-.51-1.38-.77,0,0,0,0,0,0,.47.23.94.43,1.41.66l1.44.7,1.4.68.68.34c.2.1.41.18.6.3C133,64.7,133,64.71,133,64.7Z" transform="translate(-103.31 -45.12)"/><path class="cls-3" d="M126.18,61.51a2.67,2.67,0,0,0-.34-.14l-.33-.12-.73-.27-1.53-.61c-1-.4-2-.8-3-1.27,0,0,0,0,0,0,1,.39,2,.81,3,1.22l1.53.62.77.31a3.38,3.38,0,0,1,.58.27S126.19,61.52,126.18,61.51Z" transform="translate(-103.31 -45.12)"/><path class="cls-3" d="M113.81,54.22a4.32,4.32,0,0,0,.57,1.41,6.3,6.3,0,0,0,1.31,1.43,9.78,9.78,0,0,0,1.89,1.07c.68.33,1.37.6,2,.94,0,0,0,0,0,0-.52-.28-1.06-.5-1.58-.74a12.67,12.67,0,0,1-1.92-1.12,5.9,5.9,0,0,1-2.29-3S113.81,54.21,113.81,54.22Z" transform="translate(-103.31 -45.12)"/><path class="cls-3" d="M117.28,51.31h0a3.29,3.29,0,0,0-2.24.27,2.52,2.52,0,0,0-.65.61,1.8,1.8,0,0,0-.34.91s0,0,0,0a2.05,2.05,0,0,1,1.15-1.49,3.65,3.65,0,0,1,2.29-.16,7.71,7.71,0,0,1,2.39,1.14,22,22,0,0,1,2.24,1.7s0,0,0,0a23.94,23.94,0,0,0-2.46-1.89A7.29,7.29,0,0,0,117.28,51.31Z" transform="translate(-103.31 -45.12)"/><path class="cls-4" d="M120.12,54.55l.37.21c.28.17.55.4.84.55-.15-.15-.3-.31-.44-.47a18.54,18.54,0,0,0-2.87-2.1,3.35,3.35,0,0,0-1.67-.48,1.57,1.57,0,0,0-1.1.58,2.07,2.07,0,0,0,0,2.4,4.6,4.6,0,0,0,1.15,1.27,6.92,6.92,0,0,0,.79.56,4.71,4.71,0,0,0,.88.47s0-.06,0-.08c-.21-.2-.46-.37-.68-.58a6.63,6.63,0,0,1-.52-.54,4.26,4.26,0,0,0,.38.35,7,7,0,0,0,.7.52,7.78,7.78,0,0,0,1.51.85c.06,0,0-.07,0-.1a5.93,5.93,0,0,0-.62-.47c-.2-.16-.43-.35-.63-.54a8.69,8.69,0,0,0,.76.55c.37.23.76.44,1.14.64s.8.39,1.2.58a2.34,2.34,0,0,0,.77.32s0-.07,0-.09a4.5,4.5,0,0,0-.65-.47c-.37-.27-.73-.57-1.07-.87l-.08-.08.16.09c.53.3,1.1.55,1.64.81s1.27.6,1.91.88l.94.41a2.1,2.1,0,0,0,.56.2s0-.07,0-.1a1.86,1.86,0,0,0-.38-.3c-.21-.14-.41-.3-.61-.46-.44-.35-.87-.72-1.34-1.05l-.55-.38.48.28a3.67,3.67,0,0,0,.73.39,0,0,0,0,0,0,0c0-.15-.28-.29-.41-.38s-.46-.36-.68-.55l1.32.81-.47-.45-.71-.54-.61-.5.55.35a7,7,0,0,0,.68.43c-.39-.36-.8-.71-1.2-1.07s-.63-.55-1-.83-.78-.63-1.21-.94Z" transform="translate(-103.31 -45.12)"/><path class="cls-5" d="M117.8,52.94a2.3,2.3,0,0,0-1.71-.3,1.25,1.25,0,0,0-.35.16.1.1,0,0,0,0,0s0,0,0,0-.2.15-.27.28a2.94,2.94,0,0,0-.23.51,1.18,1.18,0,0,0-.09.37,1.45,1.45,0,0,0,0,.36,3.89,3.89,0,0,0,.81,1.49,3.8,3.8,0,0,0,.55.42,2.59,2.59,0,0,1-.57-1.07,4.28,4.28,0,0,0,.56.8l.06.06a4.38,4.38,0,0,0,1.28.82,9.42,9.42,0,0,1-.69-.72,4.24,4.24,0,0,1-.7-1.06c.06.08.11.17.18.25s.26.29.4.43a5.35,5.35,0,0,0,1.13.86l0,0a13.37,13.37,0,0,0,2.06.85l0,0c-.25-.18-.5-.33-.74-.53a8.11,8.11,0,0,0-.62-.55,1.35,1.35,0,0,0-.15-.13,4.73,4.73,0,0,1,.39.28A8.73,8.73,0,0,0,120,57a13.76,13.76,0,0,0,1.6.76c.13.05.79.39.9.31s0,0,0-.05-.34-.37-.49-.51l-1.13-1.07c-.22-.23-.47-.44-.71-.65l0,0c.18.11.38.21.57.31s.4.24.61.33c0,0,0,0,0,0a3,3,0,0,0-.27-.35c-.15-.14-.33-.27-.47-.39-.36-.33-.72-.65-1.1-1a10.2,10.2,0,0,0-1-.67l.93.34-.24-.31-.38-.36A7.68,7.68,0,0,0,117.8,52.94Z" transform="translate(-103.31 -45.12)"/><path class="cls-6" d="M116.48,52.71a1.28,1.28,0,0,0-.89.49l-.09.15-.06.14a1.64,1.64,0,0,0-.11.6,1.49,1.49,0,0,0,0,.21,1.93,1.93,0,0,0,.12.41,1.48,1.48,0,0,1,.1-1.15,1.43,1.43,0,0,1,.89-.65,1.51,1.51,0,0,1,.74,0s0,0,0,0a4,4,0,0,0-.69-.12Z" transform="translate(-103.31 -45.12)"/><path class="cls-7" d="M115,51.26l-.33.5a3.89,3.89,0,0,0,1.46,1.6,2.41,2.41,0,0,0,.57-.63A2.14,2.14,0,0,0,117,52,3.78,3.78,0,0,0,115,51.26Z" transform="translate(-103.31 -45.12)"/><path class="cls-8" d="M115.61,51.34a2.67,2.67,0,0,0-.64-.08l-.33.5a3.14,3.14,0,0,0,.34.57A3.45,3.45,0,0,0,115.61,51.34Z" transform="translate(-103.31 -45.12)"/><path class="cls-9" d="M115.9,53.22l.08.06a2.57,2.57,0,0,0,.51-.59,3.69,3.69,0,0,0,.4-.82l-.09,0A3.12,3.12,0,0,1,115.9,53.22Z" transform="translate(-103.31 -45.12)"/><path class="cls-9" d="M115.64,53l.08.06a2.48,2.48,0,0,0,.49-.58,3.72,3.72,0,0,0,.4-.8l-.09-.05A3.21,3.21,0,0,1,115.64,53Z" transform="translate(-103.31 -45.12)"/><path class="cls-9" d="M116,51.45l-.1,0a3.19,3.19,0,0,1-.74,1.16l.07.08a3.19,3.19,0,0,0,.41-.51A4.11,4.11,0,0,0,116,51.45Z" transform="translate(-103.31 -45.12)"/><path class="cls-9" d="M115.4,52.81l.07.07a2.62,2.62,0,0,0,.47-.55,4.12,4.12,0,0,0,.38-.76l-.09,0A3.27,3.27,0,0,1,115.4,52.81Z" transform="translate(-103.31 -45.12)"/><path class="cls-9" d="M115.71,51.36l-.1,0a3.45,3.45,0,0,1-.63,1l.06.08a4,4,0,0,0,.35-.44A4.85,4.85,0,0,0,115.71,51.36Z" transform="translate(-103.31 -45.12)"/><path class="cls-10" d="M115,51.26l-.33.5a3.89,3.89,0,0,0,1.46,1.6l.06,0a3.69,3.69,0,0,1-.68-.56c-.14-.13-.47-.45-.3-.68s1.23.51,1.49.67h0A2.14,2.14,0,0,0,117,52,3.78,3.78,0,0,0,115,51.26Z" transform="translate(-103.31 -45.12)"/><path class="cls-10" d="M115,51.26l-.17.26a5.84,5.84,0,0,1,2.1.79A1.54,1.54,0,0,0,117,52,3.78,3.78,0,0,0,115,51.26Z" transform="translate(-103.31 -45.12)"/><path class="cls-7" d="M113.83,53l-.33.51a3.8,3.8,0,0,0,1.46,1.6,2.41,2.41,0,0,0,.57-.63,2.22,2.22,0,0,0,.34-.78A3.9,3.9,0,0,0,113.83,53Z" transform="translate(-103.31 -45.12)"/><path class="cls-11" d="M114.46,53.09a3,3,0,0,0-.63-.09l-.33.51a2.53,2.53,0,0,0,.34.57A3.54,3.54,0,0,0,114.46,53.09Z" transform="translate(-103.31 -45.12)"/><path class="cls-9" d="M114.75,55l.09.06a2.57,2.57,0,0,0,.51-.59,3.92,3.92,0,0,0,.4-.82l-.09-.06A3,3,0,0,1,114.75,55Z" transform="translate(-103.31 -45.12)"/><path class="cls-9" d="M114.5,54.77a.27.27,0,0,0,.08.07,3,3,0,0,0,.5-.58,4.6,4.6,0,0,0,.39-.8l-.09-.05A3.08,3.08,0,0,1,114.5,54.77Z" transform="translate(-103.31 -45.12)"/><path class="cls-9" d="M114.88,53.2l-.1,0a3.28,3.28,0,0,1-.74,1.16l.07.07a2.66,2.66,0,0,0,.41-.5A4.11,4.11,0,0,0,114.88,53.2Z" transform="translate(-103.31 -45.12)"/><path class="cls-9" d="M114.26,54.56l.07.07a2.62,2.62,0,0,0,.47-.55,4.12,4.12,0,0,0,.38-.76l-.1,0A3.17,3.17,0,0,1,114.26,54.56Z" transform="translate(-103.31 -45.12)"/><path class="cls-9" d="M114.56,53.11l-.1,0a3.54,3.54,0,0,1-.62,1l.06.08a4,4,0,0,0,.35-.44A4.9,4.9,0,0,0,114.56,53.11Z" transform="translate(-103.31 -45.12)"/><path class="cls-10" d="M113.83,53l-.33.51a3.8,3.8,0,0,0,1.46,1.6l.06,0a3.74,3.74,0,0,1-.68-.57c-.14-.13-.47-.45-.3-.67s1.23.51,1.48.66h0a2.22,2.22,0,0,0,.34-.78A3.9,3.9,0,0,0,113.83,53Z" transform="translate(-103.31 -45.12)"/><path class="cls-10" d="M113.83,53l-.17.27a5.55,5.55,0,0,1,2.09.79,1.34,1.34,0,0,0,.12-.36A3.9,3.9,0,0,0,113.83,53Z" transform="translate(-103.31 -45.12)"/><path class="cls-12" d="M110.25,52.94a1.52,1.52,0,0,0,.54,1.57c.82.62,4.21,1.07,3.93.75s-2.07-1.6-2.07-1.6Z" transform="translate(-103.31 -45.12)"/><path class="cls-13" d="M110.42,53.34s0-.05.06,0a5.26,5.26,0,0,0,2.17,1.42,7.64,7.64,0,0,0,2.08.56,0,0,0,0,0,0,0c-.29-.32-2.07-1.6-2.07-1.6l-2.4-.72a1.52,1.52,0,0,0,.54,1.57.78.78,0,0,0,.15.1A1.6,1.6,0,0,1,110.42,53.34Z" transform="translate(-103.31 -45.12)"/><path class="cls-14" d="M112.88,55c-.32-.09-.65-.18-1-.25s-.52,0-.78-.06h0a11.37,11.37,0,0,0,2.91.61C113.65,55.19,113.26,55.07,112.88,55Z" transform="translate(-103.31 -45.12)"/><path class="cls-15" d="M113.13,48.53a1.52,1.52,0,0,1,1.66-.14c.89.5,2.67,3.43,2.26,3.3s-2.29-1.25-2.29-1.25Z" transform="translate(-103.31 -45.12)"/><path class="cls-13" d="M117.11,51.67l-.06-.06-.54-.44c-.32-.26-.63-.52-.93-.79a10.73,10.73,0,0,1-1.69-1.81s0,0,0,0a1.49,1.49,0,0,1,1,0l-.16-.11a1.52,1.52,0,0,0-1.66.14l1.63,1.91s1.88,1.12,2.29,1.25A0,0,0,0,0,117.11,51.67Z" transform="translate(-103.31 -45.12)"/><path class="cls-16" d="M110.49,46.54a9.9,9.9,0,0,0-1.78-.93c-1.08-.51-4.75-.51-5-.47a.44.44,0,0,0-.32.21.46.46,0,0,0-.07.38c.07.25,1.54,3.61,2.44,4.39a11.8,11.8,0,0,0,1.57,1.25c1.25.88,4.72,2.71,6.25,2.76a6.62,6.62,0,0,0,1.1-1.41,6.61,6.61,0,0,0,.84-1.57C114.87,49.77,111.8,47.33,110.49,46.54Z" transform="translate(-103.31 -45.12)"/><path class="cls-15" d="M111.79,50.42a.91.91,0,0,0-.16.11l-.17.26a.66.66,0,0,0,0,.15c0,.17.12.53.91,1a19.71,19.71,0,0,0,3.57,1.56A17.39,17.39,0,0,0,113,50.87C112.34,50.41,112,50.38,111.79,50.42Z" transform="translate(-103.31 -45.12)"/><path class="cls-12" d="M111.75,50.83a.13.13,0,0,0-.09.05l-.09.12a.28.28,0,0,0,0,.09c0,.09.13.31.69.66A20.89,20.89,0,0,0,114.74,53a16.12,16.12,0,0,0-2.14-1.78A1.75,1.75,0,0,0,111.75,50.83Z" transform="translate(-103.31 -45.12)"/><path class="cls-17" d="M113,52c-.46-.28-1-.52-1.38-.84a2.38,2.38,0,0,0,.6.47c.3.19.91.51,1.45.78Z" transform="translate(-103.31 -45.12)"/><path class="cls-18" d="M103.39,45.35a.46.46,0,0,0-.07.38,18.76,18.76,0,0,0,2.37,4.32,9.42,9.42,0,0,0,1.77-2,9.64,9.64,0,0,0,1.16-2.44,18.67,18.67,0,0,0-4.91-.43A.44.44,0,0,0,103.39,45.35Z" transform="translate(-103.31 -45.12)"/><path class="cls-19" d="M103.39,45.35a.46.46,0,0,0-.07.38,18.76,18.76,0,0,0,2.37,4.32,9.42,9.42,0,0,0,1.77-2,9.64,9.64,0,0,0,1.16-2.44,18.67,18.67,0,0,0-4.91-.43A.44.44,0,0,0,103.39,45.35Z" transform="translate(-103.31 -45.12)"/><path class="cls-17" d="M106.13,49.92a.12.12,0,0,1,0,.16.12.12,0,0,1-.16,0,.11.11,0,0,1,0-.16A.12.12,0,0,1,106.13,49.92Z" transform="translate(-103.31 -45.12)"/><path class="cls-17" d="M107.76,48.06a.12.12,0,0,1-.13.2.13.13,0,0,1,0-.17A.11.11,0,0,1,107.76,48.06Z" transform="translate(-103.31 -45.12)"/><path class="cls-17" d="M108.78,45.79a.12.12,0,0,1-.13.2.13.13,0,0,1,0-.17A.14.14,0,0,1,108.78,45.79Z" transform="translate(-103.31 -45.12)"/><path class="cls-17" d="M108.37,47a.12.12,0,0,1-.13.2.13.13,0,0,1,0-.17A.13.13,0,0,1,108.37,47Z" transform="translate(-103.31 -45.12)"/><path class="cls-17" d="M107,49a.14.14,0,0,1,0,.17.12.12,0,0,1-.2-.13A.13.13,0,0,1,107,49Z" transform="translate(-103.31 -45.12)"/><path class="cls-20" d="M110.24,48.25a1.21,1.21,0,0,1,.35,1.68,1.2,1.2,0,0,1-1.67.35,1.21,1.21,0,0,1-.35-1.68A1.2,1.2,0,0,1,110.24,48.25Z" transform="translate(-103.31 -45.12)"/><path class="cls-21" d="M110.17,48.43a1,1,0,1,1-1.12,1.71,1,1,0,1,1,1.12-1.71Z" transform="translate(-103.31 -45.12)"/><path class="cls-22" d="M110.09,48.5a.92.92,0,1,1-1,1.54.92.92,0,1,1,1-1.54Z" transform="translate(-103.31 -45.12)"/><g class="cls-23"><path class="cls-24" d="M109.35,49.88l-.11.11a.79.79,0,0,0,.67,0,.8.8,0,0,1-.56-.12Z" transform="translate(-103.31 -45.12)"/><path class="cls-25" d="M108.9,48.8a.83.83,0,0,0,.19,1.11l.12-.14a.83.83,0,0,1-.1-1,.87.87,0,0,1,.38-.31A.82.82,0,0,0,108.9,48.8Z" transform="translate(-103.31 -45.12)"/></g><path class="cls-14" d="M114.88,48.59a9.11,9.11,0,0,1,2,2.74A21.17,21.17,0,0,0,114.88,48.59Z" transform="translate(-103.31 -45.12)"/><path class="cls-21" d="M106.77,49.19a1.47,1.47,0,0,1-.1.13c-.12.13-.26.24-.38.37a9.44,9.44,0,0,0,1.54,1.19,39.66,39.66,0,0,0,5.73,2.75l.31-.37c-1.73-.9-3.49-1.73-5.16-2.73A17.57,17.57,0,0,1,106.77,49.19Z" transform="translate(-103.31 -45.12)"/><path class="cls-26" d="M110.49,46.54a9.9,9.9,0,0,0-1.78-.93c-1.08-.51-4.75-.51-5-.47a.44.44,0,0,0-.32.21h0a16.26,16.26,0,0,1,1.67.41,29.6,29.6,0,0,1,10.22,6,4.22,4.22,0,0,0,.25-.59C114.87,49.77,111.8,47.33,110.49,46.54Z" transform="translate(-103.31 -45.12)"/><path class="cls-27" d="M106.39,49.18a1.22,1.22,0,0,0,.15-.17c-.21-.18-.42-.36-.62-.55-.67-.63-1.3-1.3-1.94-2a17.61,17.61,0,0,0,1.45,2.25,9.13,9.13,0,0,0,.65.73A2.94,2.94,0,0,0,106.39,49.18Z" transform="translate(-103.31 -45.12)"/></g></g></svg>