<svg id="Layer_2" data-name="Layer 2" xmlns="http://www.w3.org/2000/svg" viewBox="0 0 470.29 331.61"><defs><style>.cls-1{fill:none;stroke:#c677b1;stroke-miterlimit:10;}</style></defs><title>main-stroke</title><line class="cls-1" x1="88.31" x2="88.31" y2="44.52"/><line class="cls-1" x1="102.69" x2="102.69" y2="117.16"/><line class="cls-1" x1="117.08" x2="117.08" y2="208.26"/><line class="cls-1" x1="131.47" x2="131.47" y2="331.61"/><line class="cls-1" x1="145.85" x2="145.85" y2="179.1"/><line class="cls-1" x1="159.85" x2="159.85" y2="90.84"/><line class="cls-1" x1="173.85" x2="173.85" y2="62.71"/><line class="cls-1" x1="187.85" x2="187.85" y2="27.55"/><line class="cls-1" x1="201.85" x2="201.85" y2="41.03"/><line class="cls-1" x1="215.85" x2="215.85" y2="64.26"/><line class="cls-1" x1="229.85" x2="229.85" y2="51.35"/><line class="cls-1" x1="243.85" x2="243.85" y2="75.61"/><line class="cls-1" x1="255.85" x2="255.85" y2="75.61"/><line class="cls-1" x1="269.02" x2="269.02" y2="50.26"/><line class="cls-1" x1="282.18" x2="282.18" y2="34.77"/><line class="cls-1" x1="295.34" x2="295.34" y2="63.61"/><line class="cls-1" x1="308.5" x2="308.5" y2="22.97"/><line class="cls-1" x1="323.98" x2="323.98" y2="40.77"/><line class="cls-1" x1="339.47" x2="339.47" y2="47.48"/><line class="cls-1" x1="354.95" x2="354.95" y2="26.84"/><line class="cls-1" x1="369.4" x2="369.4" y2="40.77"/><line class="cls-1" x1="383.85" x2="383.85" y2="61.68"/><line class="cls-1" x1="398.31" x2="398.31" y2="51.1"/><line class="cls-1" x1="412.76" x2="412.76" y2="38.71"/><line class="cls-1" x1="427.4" x2="427.4" y2="28.77"/><line class="cls-1" x1="441.53" x2="441.53" y2="84.32"/><line class="cls-1" x1="455.66" x2="455.66" y2="38.71"/><line class="cls-1" x1="469.79" x2="469.79" y2="13.42"/><line class="cls-1" x1="0.5" x2="0.5" y2="20.94"/><line class="cls-1" x1="15.4" x2="15.4" y2="32.45"/><line class="cls-1" x1="30.31" x2="30.31" y2="20.94"/><line class="cls-1" x1="45.21" x2="45.21" y2="33.68"/><line class="cls-1" x1="59.56" x2="59.56" y2="55.39"/><line class="cls-1" x1="75.18" y1="0.03" x2="75.18" y2="161.06"/></svg>