<svg id="Layer_1" data-name="Layer 1" xmlns="http://www.w3.org/2000/svg" viewBox="0 0 577.45 670.5"><defs><style>.cls-1,.cls-3,.cls-4{fill:none;stroke:#24eadb;stroke-miterlimit:10;}.cls-1{stroke-width:3px;}.cls-2{fill:#24eadb;}.cls-4{stroke-width:2px;}</style></defs><title>222</title><path class="cls-1" d="M384.87,57.24C214,52.6,254.1,210,254.1,210c.19-49.55,30-77.42,30-77.42,30.38-36,37-9.87,37-9.87l-5,81.87c-1,24.2-20.84,14.39-20.84,14.39-31.48-15.87-38.58-3.74-38.58-3.74C253.13,306.53,293,288,293,288,310.29,332.34,306.94,418,306.94,418c-6.46,27.09-98.07,75.87-98.07,75.87C145.39,515.05,138.16,546,138.16,546V726.15" transform="translate(-136.66 -55.64)"/><path class="cls-1" d="M499.13,225.63c2.13,14.9-6.9,64.9-6.9,64.9-8.78,32.78-17.68,35-17.68,35-21.68,14.71-15.49,37.16-15.49,37.16,8.13,34.84,201.68,84.39,201.68,84.39,33.68,19.74,51.87,99,51.87,99v22.19" transform="translate(-136.66 -55.64)"/><path class="cls-1" d="M469.12,329.86s7.11-37.78-130.7-9.91c0,0-15.61,13.87-35.16-48.06" transform="translate(-136.66 -55.64)"/><path class="cls-1" d="M500.48,411.82,641,457.11c37.55,9.68,54.19,78.58,54.19,78.58L697.13,600" transform="translate(-136.66 -55.64)"/><path class="cls-1" d="M498.14,392.55s-121,125.39-206,45.82" transform="translate(-136.66 -55.64)"/><path class="cls-1" d="M305.39,488.86c-1.94-.39-18.2-8.52-18.2-8.52L222.55,521H522.16" transform="translate(-136.66 -55.64)"/><path class="cls-1" d="M375.84,477.24S307.32,486.15,288,461l-121.16,74.7v84.39" transform="translate(-136.66 -55.64)"/><polyline class="cls-1" points="208.21 448.7 515.95 450.63 498.14 431.28 376.6 393.73"/><polyline class="cls-1" points="351.44 392.18 369.63 375.92 511.31 420.05 536.86 461.08"/><path class="cls-2" d="M473.39,269.37a49.73,49.73,0,0,0-1.17-11.92A21.38,21.38,0,0,0,467,247.3a20,20,0,0,0-9.88-5.31,40.37,40.37,0,0,0-11.59-.83,80,80,0,0,0-11.77,1.59c-3.91.76-7.77,1.8-11.62,2.9-7.69,2.26-15.27,5-22.79,8a125.89,125.89,0,0,1,22.07-10.21,89.1,89.1,0,0,1,23.94-5.25,41.39,41.39,0,0,1,12.46,1.08,21.5,21.5,0,0,1,10.89,6.47,21.91,21.91,0,0,1,5,11.45A40.52,40.52,0,0,1,473.39,269.37Z" transform="translate(-136.66 -55.64)"/><path class="cls-2" d="M404.08,255.05a91.54,91.54,0,0,1,18.6-5.06,82.63,82.63,0,0,1,19.39-1.07,58.24,58.24,0,0,1,9.69,1.57,37.4,37.4,0,0,1,9.16,3.74,29.4,29.4,0,0,1,4.06,2.86l1.8,1.71c.58.6,1.08,1.25,1.62,1.88a25.23,25.23,0,0,1,4.29,8.69,30.66,30.66,0,0,0-5.4-7.72,26.41,26.41,0,0,0-7.49-5.36,48.29,48.29,0,0,0-17.95-4.38,82,82,0,0,0-9.41-.19c-3.15.05-6.3.3-9.46.58C416.68,252.93,410.38,253.87,404.08,255.05Z" transform="translate(-136.66 -55.64)"/><path class="cls-2" d="M423.84,262.11A30.9,30.9,0,0,1,434,255.84a29.94,29.94,0,0,1,5.86-1.64,27,27,0,0,1,6.16-.29,22.29,22.29,0,0,1,6.08,1.34,23.43,23.43,0,0,1,5.41,3,25,25,0,0,1,7.4,9.38,41.07,41.07,0,0,0-8.71-7.44,26.37,26.37,0,0,0-5-2.26,24.51,24.51,0,0,0-5.37-1,33,33,0,0,0-11.07,1.15A62.78,62.78,0,0,0,423.84,262.11Z" transform="translate(-136.66 -55.64)"/><path class="cls-3" d="M441.35,254.48" transform="translate(-136.66 -55.64)"/><path class="cls-2" d="M425.19,261.47c3.26.56,6.42,1.19,9.58,1.82l9.44,1.79c3.15.56,6.3,1,9.46,1.47s6.35.65,9.65.92a34.74,34.74,0,0,1-9.78,1.42,54.16,54.16,0,0,1-9.85-.86,62.39,62.39,0,0,1-9.53-2.49A46.11,46.11,0,0,1,425.19,261.47Z" transform="translate(-136.66 -55.64)"/><path class="cls-1" d="M440.1,222s-67.62,9.16,1-20.26c0,0,33-11.46,31.56,26.45,0,0-2.49,13.94-14.44-3.22" transform="translate(-136.66 -55.64)"/><ellipse class="cls-4" cx="439.41" cy="211.74" rx="7.42" ry="3.34" transform="translate(-184.94 147.57) rotate(-24.73)"/><ellipse class="cls-4" cx="460.81" cy="215.59" rx="2.74" ry="6.56" transform="translate(-184.37 175.38) rotate(-26.81)"/><path class="cls-4" d="M264,220.47s34.58-1.68,21.93,30.32c0,0,15.62,16.13-3.87,8.26" transform="translate(-136.66 -55.64)"/></svg>