<svg id="Layer_2" data-name="Layer 2" xmlns="http://www.w3.org/2000/svg" xmlns:xlink="http://www.w3.org/1999/xlink" viewBox="0 0 261.35 159.29"><defs><style>.cls-1{fill:none;stroke:#24eadb;stroke-miterlimit:10;stroke-width:3px;}.cls-2{fill:#24eadb;}.cls-3{fill:url(#linear-gradient);}</style><linearGradient id="linear-gradient" x1="312.28" y1="132.8" x2="573.63" y2="132.8" gradientUnits="userSpaceOnUse"><stop offset="0" stop-color="aqua"/><stop offset="0.04" stop-color="#20e6ff"/><stop offset="0.17" stop-color="#7e9cff"/><stop offset="0.28" stop-color="#c366fe"/><stop offset="0.35" stop-color="#ee45fe"/><stop offset="0.39" stop-color="#fe38fe"/><stop offset="0.39" stop-color="#fe3afe"/><stop offset="0.48" stop-color="#fd6afe"/><stop offset="0.55" stop-color="#fd8fff"/><stop offset="0.62" stop-color="#fca9ff"/><stop offset="0.69" stop-color="#fcb9ff"/><stop offset="0.74" stop-color="#fcbfff"/><stop offset="0.78" stop-color="#f9bafe"/><stop offset="0.83" stop-color="#f1abf9"/><stop offset="0.88" stop-color="#e392f3"/><stop offset="0.94" stop-color="#d06fe9"/><stop offset="1" stop-color="#ba47de"/></linearGradient></defs><title>awef</title><path class="cls-1" d="M322.52,176.21s-7.84,34.32,90.22,37.68" transform="translate(-312.28 -67.84)"/><path class="cls-2" d="M561.24,215.59a273.7,273.7,0,0,0-25.79-9.48q-13.08-4.19-26.43-7.37c-8.9-2.09-17.86-3.91-26.89-5.3s-18.09-2.56-27.2-3.15a284.45,284.45,0,0,0-54.66,1.12l-3.4.38-3.39.52-6.77,1L380,194.63c-1.12.23-2.25.41-3.37.67l-3.33.79c-9,1.85-17.69,4.69-26.43,7.49l6.4-2.52,3.22-1.24c1.08-.39,2.18-.73,3.27-1.1l6.54-2.17c2.2-.66,4.43-1.26,6.64-1.89l3.33-.92c1.11-.3,2.24-.52,3.36-.79l6.73-1.54c2.26-.45,4.53-.83,6.8-1.24l3.4-.61,3.43-.48c2.28-.3,4.56-.65,6.85-.92l6.88-.66c2.29-.25,4.6-.34,6.9-.48s4.6-.31,6.91-.32l6.91-.13c2.31,0,4.61.06,6.92.09s4.61.13,6.91.25,4.61.18,6.9.39a302.09,302.09,0,0,1,54.44,9.18c8.9,2.34,17.69,5.11,26.33,8.25,4.32,1.57,8.6,3.27,12.83,5.06S557.17,213.46,561.24,215.59Z" transform="translate(-312.28 -67.84)"/><path class="cls-1" d="M570.16,183.82" transform="translate(-312.28 -67.84)"/><path class="cls-1" d="M564.9,191.57s18.58,33.09-39.87,34.06L473,223.89" transform="translate(-312.28 -67.84)"/><path class="cls-3" d="M333.52,186S300.23,174.4,317,114c0,0,10.58-54.2,133.42-45.16,0,0,107.87,4.64,118.45,44.64,0,0,11.36,65-1,84.26C567.84,197.76,478,137.76,333.52,186Z" transform="translate(-312.28 -67.84)"/></svg>